<svg
  width="17"
  height="17"
  viewBox="0 0 17 17"
  fill="none"
  xmlns="http://www.w3.org/2000/svg"
>
  <path
    d="M8.49856 3.28692C9.71635 3.26783 10.8942 3.72121 11.7849 4.55189L14.1834 2.21022C12.645 0.767009 10.6078 -0.0248337 8.49856 0.000593972C6.92327 0.000334915 5.37896 0.438216 4.03826 1.26529C2.69756 2.09236 1.61332 3.27602 0.906738 4.68395L3.65242 6.81774C3.98877 5.79633 4.63719 4.90623 5.50626 4.27289C6.37534 3.63956 7.42126 3.29492 8.4966 3.28757L8.49856 3.28692Z"
    fill="#EA4335"
  ></path>
  <path
    d="M16.6571 8.68807C16.6674 8.10377 16.6072 7.52036 16.478 6.95044H8.49854V10.1041H13.1819C13.0932 10.657 12.8936 11.1864 12.5951 11.6602C12.2966 12.1341 11.9054 12.5427 11.4449 12.8615L14.1252 14.9391C14.9608 14.132 15.6178 13.1587 16.0539 12.082C16.4901 11.0053 16.6955 9.84911 16.6571 8.68807Z"
    fill="#4285F4"
  ></path>
  <path
    d="M3.66095 10.1799C3.47532 9.6389 3.37969 9.07111 3.37788 8.49915C3.38211 7.92771 3.47541 7.36043 3.65441 6.81774L0.906762 4.68395C0.310716 5.86729 0.000244141 7.17384 0.000244141 8.49882C0.000244141 9.8238 0.310716 11.1303 0.906762 12.3137L3.66095 10.1799Z"
    fill="#FBBC05"
  ></path>
  <path
    d="M8.49909 16.9977C10.5691 17.0561 12.5828 16.3194 14.1264 14.9391L11.4448 12.8602C10.5753 13.4431 9.54552 13.7402 8.49909 13.7101C7.4241 13.7045 6.37817 13.3604 5.50978 12.7268C4.6414 12.0931 3.99469 11.2019 3.66146 10.1799L0.915771 12.3137C1.62039 13.7214 2.703 14.9051 4.04236 15.7322C5.38171 16.5594 6.9249 16.9974 8.49909 16.997V16.9977Z"
    fill="#34A853"
  ></path>
</svg>
